<?xml version="1.0" standalone="no"?>
<!DOCTYPE svg PUBLIC "-//W3C//DTD SVG 20010904//EN"
 "http://www.w3.org/TR/2001/REC-SVG-20010904/DTD/svg10.dtd">
<svg version="1.0" xmlns="http://www.w3.org/2000/svg"
 width="1636.000000pt" height="1636.000000pt" viewBox="0 0 1636.000000 1636.000000"
 preserveAspectRatio="xMidYMid meet">
<metadata>
Created by potrace 1.11, written by Peter Selinger 2001-2013
</metadata>
<g transform="translate(0.000000,1636.000000) scale(0.100000,-0.100000)"
fill="#000000" stroke="none">
<path d="M9909 13460 c-46 -66 -129 -184 -185 -263 -55 -78 -157 -223 -226
-322 -70 -99 -136 -193 -148 -210 -50 -69 -804 -1143 -828 -1180 -15 -22 -31
-45 -37 -52 -5 -7 -25 -34 -43 -60 -18 -26 -85 -122 -149 -213 -64 -91 -141
-201 -172 -245 -30 -44 -87 -125 -126 -180 -38 -55 -78 -111 -87 -125 -9 -14
-82 -117 -161 -230 -80 -113 -173 -245 -208 -293 -34 -49 -65 -85 -69 -80 -6
6 -199 281 -441 628 -104 148 -604 860 -738 1050 -85 121 -175 249 -200 285
-25 36 -56 81 -70 101 -15 20 -32 45 -39 55 -12 19 -99 141 -126 179 -8 11
-32 45 -53 75 -105 153 -138 199 -143 200 -6 0 -89 -118 -600 -847 -80 -113
-170 -242 -200 -285 -30 -43 -108 -153 -173 -246 -143 -204 -278 -395 -338
-482 -25 -36 -281 -400 -569 -810 -288 -410 -538 -765 -555 -790 -32 -46 -232
-330 -533 -760 -91 -129 -180 -255 -197 -280 -17 -25 -103 -146 -190 -270 -87
-124 -179 -255 -204 -291 -46 -65 -251 -358 -388 -552 -39 -56 -93 -133 -120
-172 -26 -38 -91 -131 -144 -205 -76 -108 -616 -876 -794 -1130 -135 -194
-182 -260 -212 -302 l-35 -48 949 0 948 0 -1 218 c-1 119 -2 220 -3 223 0 3
-228 6 -506 6 -278 0 -508 2 -510 5 -5 5 124 192 474 688 71 102 188 268 260
370 71 102 178 254 238 339 59 85 134 191 165 235 31 45 66 95 78 111 23 31
419 597 524 747 34 48 153 219 266 379 239 341 301 429 368 524 27 39 199 284
382 545 597 850 720 1025 733 1044 6 10 19 28 28 40 17 23 360 512 663 943
154 221 193 270 203 260 7 -7 71 -96 142 -197 133 -190 166 -237 189 -268 21
-28 496 -705 528 -753 17 -24 81 -116 144 -204 62 -88 132 -187 155 -220 22
-33 116 -167 208 -297 92 -130 167 -239 167 -241 0 -3 -52 -78 -115 -168 -64
-90 -140 -200 -171 -244 -30 -44 -207 -296 -393 -560 l-337 -480 649 -3 c357
-1 939 -1 1293 0 l644 3 -197 280 c-108 154 -302 431 -431 615 -130 184 -248
353 -264 375 -15 22 -50 72 -78 111 l-49 72 66 93 c37 52 246 351 466 664 487
692 459 653 563 800 46 66 95 136 108 155 14 19 44 63 68 96 24 34 61 88 84
120 71 102 342 487 378 539 43 60 307 437 425 605 46 66 87 120 90 119 3 0 70
-91 147 -202 240 -343 1323 -1887 1394 -1987 56 -78 610 -868 772 -1100 155
-222 1345 -1917 1383 -1970 26 -36 127 -180 225 -320 98 -140 196 -280 217
-310 51 -71 428 -609 510 -725 72 -104 57 -83 179 -255 53 -74 107 -153 122
-175 14 -22 28 -42 32 -45 9 -7 89 -126 95 -142 4 -10 -110 -13 -572 -13
l-578 0 -1 -222 -1 -223 1014 0 1015 0 -35 48 c-27 38 -378 537 -542 772 -74
105 -937 1335 -958 1365 -24 34 -489 695 -559 795 -25 36 -87 124 -137 195
-51 72 -129 183 -174 248 -45 65 -151 215 -236 335 -84 119 -164 234 -177 255
-14 20 -31 45 -39 55 -7 9 -101 141 -206 292 -106 151 -337 480 -513 730 -175
250 -340 485 -365 521 -25 36 -80 113 -121 172 -41 59 -115 165 -165 235 -49
70 -182 259 -295 420 -113 161 -253 361 -312 445 -59 84 -112 159 -118 167
-10 14 -469 669 -526 750 -13 19 -125 178 -247 352 -122 175 -225 318 -228
318 -3 0 -44 -54 -90 -120z m-2225 -4540 c102 -146 194 -276 205 -290 11 -13
18 -26 16 -29 -3 -2 -196 -4 -430 -5 -338 -1 -424 2 -420 12 2 6 98 145 211
308 169 241 210 293 220 282 7 -7 96 -132 198 -278z"/>
<path d="M12698 6549 c-386 -60 -620 -391 -565 -798 35 -257 241 -486 486
-542 76 -18 87 -19 166 -22 319 -14 583 160 681 449 40 119 48 303 18 406 -3
9 -7 25 -9 36 -7 40 -49 129 -88 187 -93 139 -227 232 -394 271 -75 18 -222
25 -295 13z m267 -163 c93 -28 155 -64 221 -130 102 -102 152 -229 152 -385 0
-155 -51 -286 -152 -387 -121 -121 -298 -172 -480 -137 -75 14 -177 57 -216
93 -14 12 -32 27 -41 34 -27 19 -91 109 -111 156 -92 215 -51 472 101 625 59
60 160 117 246 139 68 17 207 13 280 -8z"/>
<path d="M2820 5870 l0 -668 78 1 77 2 0 267 0 266 250 4 c241 4 252 5 317 31
123 48 188 109 229 215 31 81 31 224 -1 306 -44 115 -155 199 -300 230 -46 9
-152 13 -358 14 l-292 0 0 -668z m627 506 c66 -18 92 -32 130 -74 83 -88 73
-267 -18 -346 -69 -58 -124 -69 -368 -70 l-216 -1 -1 240 c0 132 2 246 4 253
6 18 400 16 469 -2z"/>
<path d="M4507 6533 c-3 -4 -5 -305 -4 -668 l0 -661 77 0 77 -1 -1 666 -1 666
-72 3 c-39 1 -73 -1 -76 -5z"/>
<path d="M5460 5871 l0 -668 463 1 462 1 0 70 0 70 -385 5 -385 5 0 590 0 590
-77 2 -78 2 0 -668z"/>
<path d="M7032 5871 l-1 -669 77 2 77 1 2 263 c1 145 3 265 5 268 2 2 103 4
223 4 143 1 240 6 277 15 200 46 313 178 316 370 4 192 -88 323 -269 386 -60
20 -85 22 -386 25 l-321 3 0 -668z m673 491 c100 -46 139 -108 139 -222 0 -90
-26 -150 -81 -193 -66 -50 -126 -60 -360 -61 l-213 -2 -1 31 c0 31 0 425 1
458 0 18 12 19 233 15 216 -3 235 -5 282 -26z"/>
<path d="M8719 6536 c-1 0 -2 -299 -3 -664 -1 -582 1 -663 14 -666 8 -3 43 -4
78 -4 l62 0 0 668 0 668 -75 0 c-41 0 -76 -1 -76 -2z"/>
<path d="M9672 5870 l0 -667 462 0 462 0 2 73 1 74 -384 0 -385 0 0 38 c-1 20
-1 287 -1 593 l0 557 -79 0 -79 0 1 -668z"/>
<path d="M11247 6531 c-3 -6 -1 -1292 2 -1318 1 -7 26 -11 76 -10 l75 0 0 667
0 667 -75 0 c-42 0 -77 -2 -78 -6z"/>
<path d="M2953 4752 c-12 -2 -41 -20 -65 -41 -42 -38 -43 -40 -43 -101 0 -57
3 -64 32 -90 18 -16 52 -34 75 -40 179 -46 218 -68 218 -123 -1 -42 -20 -66
-66 -82 -70 -24 -186 0 -245 51 -14 12 -17 11 -27 -10 -9 -19 -7 -27 6 -39 69
-60 228 -81 310 -40 66 33 95 100 72 168 -15 45 -50 72 -119 90 -192 52 -202
58 -204 120 -2 55 35 85 109 92 48 4 70 1 112 -17 29 -12 52 -27 52 -33 0 -7
7 -1 16 11 15 21 15 25 0 41 -34 38 -142 58 -233 43z"/>
<path d="M3626 4751 c-2 -4 -3 -124 -3 -268 l0 -263 28 0 27 0 -1 97 -1 98
108 2 c89 2 114 7 142 23 87 54 103 186 32 262 -42 46 -66 52 -201 53 -71 1
-130 -1 -131 -4z m274 -66 c58 -52 62 -137 10 -189 -27 -28 -32 -29 -129 -31
-85 -1 -101 1 -102 14 -1 19 -1 165 0 203 l1 27 99 -2 c83 -2 103 -6 121 -22z"/>
<path d="M4390 4488 l0 -269 28 3 27 3 0 264 0 265 -27 1 -28 2 0 -269z"/>
<path d="M4990 4733 c-95 -47 -153 -154 -144 -263 2 -29 9 -60 15 -71 5 -10 7
-19 4 -19 -13 0 58 -91 90 -116 103 -78 262 -57 335 46 l21 29 -22 11 c-18 10
-26 7 -59 -25 -92 -90 -225 -73 -293 37 -65 105 -39 251 56 314 80 53 203 33
248 -42 13 -22 15 -22 37 -6 l22 17 -30 36 c-62 76 -186 99 -280 52z"/>
<path d="M5703 4746 c-4 -6 -7 -416 -4 -508 1 -16 17 -18 182 -18 l180 0 -3
23 c-3 22 -6 22 -154 25 l-152 3 0 99 0 100 128 0 c98 0 129 3 133 13 10 27
-10 34 -95 35 -49 0 -105 1 -127 1 l-38 1 -1 94 0 93 146 0 147 0 3 24 3 24
-171 0 c-95 0 -174 -4 -177 -9z"/>
<path d="M6459 4731 c0 -14 -1 -136 -2 -269 l-2 -244 135 4 c114 3 141 7 175
25 76 40 121 113 129 206 11 124 -34 222 -123 271 -50 27 -61 29 -182 30
l-129 2 -1 -25z m274 -46 c150 -71 140 -345 -14 -404 -22 -8 -126 -15 -191
-12 -15 1 -17 21 -15 222 l1 220 90 -4 c61 -2 104 -9 129 -22z"/>
<path d="M7793 4751 c-11 -7 -10 -309 1 -361 13 -60 53 -118 102 -146 37 -22
58 -27 114 -27 115 0 184 56 215 171 15 58 17 354 3 363 -6 4 -19 4 -29 2 -17
-5 -18 -17 -17 -147 2 -199 -10 -255 -65 -303 -57 -49 -151 -49 -212 -2 -50
40 -59 77 -65 273 -4 155 -7 179 -21 181 -9 2 -21 0 -26 -4z"/>
<path d="M8671 4750 c-5 -3 -8 -123 -8 -267 l0 -263 26 0 27 0 -1 95 c-1 111
-10 104 127 103 103 -1 141 16 175 78 50 90 20 197 -68 245 -24 13 -260 21
-278 9z m274 -70 c57 -54 52 -153 -10 -195 -26 -17 -45 -20 -120 -19 -50 1
-92 2 -95 3 -5 1 -5 230 -1 238 0 1 46 1 100 0 90 -2 102 -5 126 -27z"/>
<path d="M9832 4752 c-5 -1 -8 -12 -5 -22 6 -21 24 -24 139 -20 l51 1 1 -238
c0 -131 1 -242 1 -246 1 -5 13 -7 29 -5 l27 3 0 238 c0 235 0 238 21 243 12 3
30 5 40 4 11 -1 45 -2 76 -1 50 1 57 3 55 21 -1 11 -4 21 -7 21 -13 3 -419 4
-428 1z"/>
<path d="M10770 4749 c-58 -17 -125 -76 -157 -137 -15 -27 -31 -111 -27 -138
14 -97 37 -147 89 -192 54 -48 91 -63 153 -64 139 -2 250 106 258 252 10 188
-149 328 -316 279z m121 -50 c34 -11 74 -41 105 -81 40 -50 46 -163 13 -232
-59 -127 -203 -158 -298 -65 -115 113 -78 323 66 374 47 17 66 18 114 4z"/>
<path d="M11485 4752 c-12 -12 -3 -336 11 -382 29 -97 104 -152 208 -153 95 0
163 39 199 116 22 47 26 74 27 216 2 216 4 207 -25 207 -14 0 -25 -5 -26 -10
0 -6 -1 -85 -3 -176 -1 -149 -4 -169 -24 -212 -31 -62 -75 -90 -147 -90 -72
-1 -117 29 -146 97 -20 45 -22 68 -23 217 -1 93 -3 168 -6 169 -3 0 -13 2 -22
4 -9 2 -19 0 -23 -3z"/>
<path d="M12359 4740 c-1 -19 -1 -479 0 -502 1 -12 9 -18 26 -18 27 0 26 -8
27 132 l1 67 77 -2 78 -1 62 -98 c56 -87 66 -98 91 -98 16 0 29 2 29 5 0 3
-27 48 -60 101 -33 52 -60 97 -60 98 0 2 13 9 29 15 106 44 111 221 8 289 -37
25 -46 26 -173 27 -114 0 -134 -2 -135 -15z m281 -55 c61 -55 63 -141 5 -195
-23 -21 -35 -24 -128 -24 l-102 -1 -1 122 -2 121 103 -2 c87 -1 107 -4 125
-21z"/>
<path d="M13237 4746 c-87 -32 -126 -111 -93 -189 19 -46 44 -61 141 -87 112
-29 154 -49 170 -81 36 -69 -36 -131 -142 -123 -57 4 -127 30 -155 57 -15 15
-17 15 -32 -8 -15 -23 -14 -25 12 -43 55 -38 115 -55 194 -54 123 0 188 50
188 142 0 83 -44 118 -195 155 -83 21 -120 38 -129 60 -18 47 4 100 50 123 36
19 146 9 187 -17 39 -24 57 -21 57 9 0 12 -17 26 -51 43 -59 28 -145 34 -202
13z"/>
</g>
</svg>
