<?xml version="1.0" standalone="no"?>
<!DOCTYPE svg PUBLIC "-//W3C//DTD SVG 20010904//EN"
 "http://www.w3.org/TR/2001/REC-SVG-20010904/DTD/svg10.dtd">
<svg version="1.0" xmlns="http://www.w3.org/2000/svg"
 width="2000.000000pt" height="2000.000000pt" viewBox="0 0 2000.000000 2000.000000"
 preserveAspectRatio="xMidYMid meet">
<metadata>
Created by potrace 1.11, written by Peter Selinger 2001-2013
</metadata>
<g transform="translate(0.000000,2000.000000) scale(0.100000,-0.100000)"
fill="#000000" stroke="none">
<path d="M11799 14662 c-9 -15 -39 -58 -66 -97 -55 -77 -71 -100 -418 -594
-132 -187 -265 -377 -295 -420 -30 -43 -116 -166 -191 -272 -159 -227 -355
-506 -420 -599 -25 -36 -115 -164 -201 -285 -85 -121 -277 -395 -428 -610
-151 -214 -320 -455 -376 -535 -56 -80 -105 -144 -109 -143 -3 1 -172 237
-374 525 -202 288 -443 631 -536 763 -92 132 -189 269 -214 305 -25 36 -142
202 -260 370 -118 168 -240 341 -270 385 -31 44 -78 113 -106 152 -27 40 -53
73 -56 73 -3 0 -30 -35 -59 -77 -30 -43 -182 -260 -339 -483 -264 -377 -317
-452 -410 -585 -19 -27 -71 -102 -116 -165 -45 -63 -193 -275 -330 -470 -136
-195 -262 -374 -279 -397 -17 -23 -69 -97 -116 -164 -47 -67 -174 -249 -282
-403 -109 -155 -202 -288 -208 -296 -6 -8 -50 -71 -98 -140 -75 -106 -550
-782 -647 -920 -17 -25 -112 -160 -210 -300 -98 -140 -194 -277 -214 -305 -63
-90 -596 -849 -944 -1345 -188 -267 -356 -507 -376 -535 -19 -27 -163 -232
-319 -455 -156 -223 -289 -411 -294 -417 -8 -10 181 -13 938 -13 l949 0 0 224
0 224 -510 0 c-408 0 -509 2 -507 12 3 13 38 64 324 470 90 129 252 359 358
510 249 355 269 383 321 458 68 98 144 206 269 383 115 163 206 292 298 424
48 69 464 661 535 763 20 28 54 76 74 105 20 28 142 203 272 387 208 297 339
484 371 530 6 8 46 65 88 125 43 61 195 277 338 480 313 445 318 453 375 535
40 56 420 599 534 760 93 133 139 198 172 248 20 28 39 52 42 51 3 0 46 -57
94 -127 49 -70 185 -264 302 -432 118 -168 219 -312 225 -320 45 -64 191 -272
243 -345 35 -49 201 -287 370 -528 329 -468 316 -445 273 -494 -6 -7 -30 -41
-54 -75 -24 -35 -78 -112 -121 -173 -112 -159 -609 -867 -717 -1022 l-93 -133
1296 0 c1287 0 1295 0 1282 20 -8 11 -37 52 -65 92 -84 122 -159 228 -279 399
-119 169 -485 691 -611 870 l-54 76 83 116 c75 106 284 404 398 567 25 36 83
119 130 185 46 66 92 131 101 145 22 32 273 388 292 415 8 11 111 157 228 325
118 168 360 512 538 765 287 408 352 502 434 620 26 37 46 58 50 54 2 -2 151
-215 332 -474 182 -258 440 -626 574 -818 135 -191 250 -355 255 -365 6 -9 12
-19 15 -22 4 -3 102 -142 220 -310 117 -168 229 -327 249 -355 19 -27 82 -117
139 -198 131 -188 132 -189 283 -403 69 -99 199 -285 290 -414 167 -238 650
-925 927 -1320 82 -118 169 -242 193 -275 42 -59 540 -769 714 -1018 50 -71
110 -157 135 -191 25 -35 82 -117 128 -182 46 -66 137 -195 203 -289 121 -172
136 -195 305 -435 52 -74 101 -143 109 -152 14 -17 12 -18 -28 -19 -23 0 -286
0 -584 -1 l-541 0 0 -224 0 -224 1015 0 1015 0 -35 48 c-18 26 -54 76 -79 112
-25 36 -115 164 -200 285 -85 121 -277 396 -428 610 -150 215 -342 487 -425
605 -231 328 -843 1201 -1158 1650 -9 14 -43 61 -75 106 -49 70 -116 165 -347
494 -21 30 -75 107 -119 170 -106 149 -101 143 -173 246 -69 99 -103 148 -318
452 -82 117 -154 221 -160 230 -5 9 -13 19 -16 22 -3 3 -27 37 -54 75 -26 39
-94 135 -150 215 -56 80 -122 174 -147 210 -25 36 -125 178 -221 315 -97 138
-181 257 -187 265 -6 8 -122 175 -259 370 -137 195 -294 418 -348 494 -54 77
-120 172 -148 211 -27 40 -133 191 -235 335 -241 343 -309 440 -368 525 -141
202 -232 331 -240 341 -5 5 -22 29 -37 52 -15 23 -28 42 -29 42 0 0 -8 -12
-17 -28z m-2433 -4445 c32 -45 73 -104 93 -132 250 -356 269 -385 253 -386
-76 -3 -834 0 -838 4 -7 7 418 607 427 602 4 -3 33 -42 65 -88z"/>
<path d="M14520 7649 c-112 -19 -160 -36 -249 -86 -189 -106 -317 -326 -325
-557 -6 -190 42 -343 149 -479 232 -292 738 -325 1016 -65 95 89 173 227 194
343 2 17 7 41 10 55 3 14 6 57 6 95 4 338 -188 598 -501 680 -71 19 -229 26
-300 14z m268 -164 c269 -77 422 -355 356 -646 -65 -286 -330 -452 -624 -392
-246 51 -403 245 -409 506 -6 245 119 442 330 520 102 38 239 43 347 12z"/>
<path d="M4646 7633 c-3 -4 -6 -304 -6 -668 l0 -662 74 0 c48 -1 76 3 78 11 3
6 4 127 4 269 l-1 257 205 1 c243 1 260 2 336 24 174 50 270 170 279 350 10
200 -95 346 -290 403 -38 11 -125 15 -362 17 -171 2 -314 1 -317 -2z m621
-157 c127 -34 184 -106 185 -236 2 -131 -72 -220 -206 -246 -33 -7 -424 -13
-441 -7 -7 2 -10 92 -9 251 1 136 2 248 3 250 0 1 94 2 209 2 145 0 223 -4
259 -14z"/>
<path d="M6323 6969 l0 -668 76 2 76 2 0 665 0 665 -76 2 -76 1 0 -669z"/>
<path d="M7280 6970 l0 -668 463 2 462 1 0 70 0 70 -385 5 -385 5 -1 585 c-1
322 -2 588 -3 592 0 3 -35 6 -76 6 l-75 -1 0 -667z"/>
<path d="M8856 7631 c-2 -3 -4 -303 -4 -667 l0 -661 78 0 79 0 0 211 c0 116 0
237 0 269 l1 57 213 0 c148 0 233 5 282 15 204 43 313 166 321 361 8 207 -89
343 -289 401 -41 12 -121 16 -365 18 -171 2 -314 0 -316 -4z m658 -164 c98
-43 147 -110 151 -209 4 -80 -11 -131 -56 -182 -68 -77 -112 -87 -391 -90
l-208 -2 -1 40 c0 62 0 418 0 444 l1 24 233 -4 c193 -3 239 -7 271 -21z"/>
<path d="M10537 7632 c-2 -4 -3 -304 -3 -667 l1 -660 78 -1 77 -1 0 667 0 667
-75 1 c-41 0 -76 -3 -78 -6z"/>
<path d="M11496 7631 c-2 -3 -5 -304 -5 -667 l0 -661 463 0 463 -1 0 74 1 74
-384 0 -384 0 -1 28 c0 15 -1 281 -2 592 l-2 565 -72 2 c-40 1 -75 -2 -77 -6z"/>
<path d="M13067 7631 c-2 -3 -3 -303 -3 -666 l1 -660 78 -2 77 -3 0 669 0 668
-75 0 c-42 0 -77 -2 -78 -6z"/>
<path d="M4744 5836 c-77 -39 -104 -115 -68 -191 15 -33 61 -61 116 -70 15 -3
39 -10 53 -15 14 -5 25 -8 25 -5 0 10 94 -37 106 -53 17 -22 17 -72 -1 -95
-46 -62 -216 -51 -296 19 -14 12 -17 11 -27 -11 -11 -23 -9 -27 26 -50 109
-72 286 -64 344 15 26 36 32 103 13 139 -26 51 -54 65 -207 100 -95 23 -133
72 -102 133 37 71 183 78 256 11 16 -14 18 -14 28 11 5 15 10 28 10 30 0 1
-21 13 -47 26 -30 15 -70 25 -112 27 -56 4 -74 0 -117 -21z"/>
<path d="M5446 5851 c-2 -4 -3 -123 -2 -266 l1 -260 25 0 c24 0 25 2 27 75 0
41 2 84 2 96 1 20 6 21 111 21 102 1 112 2 144 26 44 34 66 83 66 147 0 63
-25 109 -77 141 -33 21 -51 23 -165 24 -71 1 -131 -1 -132 -4z m275 -67 c34
-30 51 -72 45 -109 -14 -89 -47 -109 -178 -110 -88 -1 -88 -1 -89 25 -1 29 -1
214 0 218 1 1 46 1 101 -1 81 -3 104 -7 121 -23z"/>
<path d="M6210 5588 l0 -269 27 3 28 3 0 263 c0 144 -2 263 -5 263 -3 1 -15 3
-27 4 l-23 2 0 -269z"/>
<path d="M6850 5850 c-112 -32 -184 -134 -184 -260 1 -201 186 -330 359 -249
25 12 59 38 75 58 28 33 29 37 13 49 -24 17 -41 15 -47 -6 -7 -20 -82 -71
-108 -73 -10 -1 -26 -2 -35 -2 -123 -6 -230 138 -199 268 18 77 53 127 111
154 75 35 144 24 206 -36 35 -33 69 -37 69 -8 0 21 -47 72 -83 90 -35 18 -137
27 -177 15z"/>
<path d="M7521 5840 c-5 -11 -7 -438 -2 -507 1 -10 44 -13 180 -13 l179 0 0
25 0 25 -117 -1 c-64 0 -133 0 -153 0 l-36 1 0 100 1 100 128 0 129 0 0 24 0
25 -112 0 c-62 -1 -121 0 -131 0 -15 1 -17 11 -15 94 l3 92 144 1 c105 1 145
5 151 14 19 31 0 35 -171 35 -143 0 -172 -2 -178 -15z"/>
<path d="M8279 5836 c0 -12 -1 -131 -1 -266 l-1 -245 134 0 c119 0 139 3 175
22 86 46 126 120 127 238 2 124 -38 197 -136 246 -35 18 -61 22 -169 24 -123
2 -128 1 -129 -19z m276 -52 c118 -61 144 -249 49 -354 -49 -54 -87 -64 -225
-61 l-47 1 0 219 0 219 92 -2 c70 -1 100 -6 131 -22z"/>
<path d="M9607 5846 c-6 -19 -1 -309 7 -353 12 -66 56 -127 112 -154 86 -41
211 -24 266 38 10 10 27 41 40 68 20 46 22 66 22 230 l1 180 -25 0 -25 0 -2
-163 c-2 -182 -14 -240 -62 -286 -59 -56 -177 -51 -233 11 -38 42 -48 99 -48
272 l0 166 -24 1 c-14 1 -26 -3 -29 -10z"/>
<path d="M10486 5851 c-2 -3 -3 -123 -2 -266 l1 -260 25 -3 25 -3 0 88 c-1 48
0 93 2 99 3 7 40 11 108 11 122 0 157 15 193 80 36 66 30 146 -15 199 -43 51
-68 58 -205 59 -71 1 -131 -1 -132 -4z m268 -64 c63 -41 71 -129 18 -189 -27
-30 -30 -30 -130 -32 -56 -1 -103 0 -103 3 -4 17 -5 227 -2 234 3 4 46 6 97 4
68 -2 100 -7 120 -20z"/>
<path d="M11647 5833 c-5 -26 -9 -25 108 -27 l80 -1 2 -235 c1 -129 2 -239 2
-243 1 -5 13 -7 29 -5 l27 3 0 240 0 240 55 1 c30 1 73 2 95 3 33 1 41 5 42
21 1 11 -1 21 -5 21 -4 1 -102 2 -219 3 l-212 1 -4 -22z"/>
<path d="M12565 5840 c-80 -36 -150 -133 -158 -221 -4 -50 12 -129 36 -175 57
-110 208 -159 318 -103 185 94 197 360 21 481 -39 27 -56 32 -112 34 -44 1
-78 -4 -105 -16z m161 -46 c138 -66 169 -260 58 -370 -73 -73 -175 -77 -246
-9 -51 47 -70 89 -74 161 -5 102 55 199 136 222 52 15 88 14 126 -4z"/>
<path d="M13300 5697 c1 -89 6 -184 12 -210 12 -59 60 -124 111 -150 45 -23
133 -27 190 -8 51 17 112 89 126 149 9 37 17 276 12 363 -1 18 -50 22 -52 4 0
-5 -1 -84 -2 -175 -2 -149 -4 -169 -25 -210 -12 -25 -34 -53 -48 -64 -78 -56
-202 -28 -241 54 -24 53 -29 90 -28 243 0 99 -3 157 -10 158 -5 0 -18 2 -28 4
-17 3 -18 -8 -17 -158z"/>
<path d="M14184 5848 c-3 -5 -6 -111 -6 -236 0 -320 -3 -292 30 -292 l27 0 -3
98 -3 98 79 1 78 1 63 -99 c59 -93 65 -99 96 -99 l33 0 -64 97 c-35 54 -64
101 -64 105 0 4 9 10 21 13 35 11 78 65 87 109 16 78 -16 153 -81 191 -26 16
-54 19 -160 20 -70 1 -130 -2 -133 -7z m286 -75 c38 -42 48 -95 27 -139 -27
-56 -57 -68 -166 -69 l-96 0 -1 122 -1 123 104 -3 c104 -2 105 -2 133 -34z"/>
<path d="M15073 5851 c-72 -19 -114 -66 -118 -134 -5 -84 29 -115 163 -151 49
-13 102 -31 119 -39 34 -18 53 -59 43 -97 -18 -73 -193 -86 -281 -21 -34 25
-59 22 -59 -8 0 -38 129 -91 210 -86 130 8 190 53 190 143 0 85 -45 122 -193
156 -79 18 -122 39 -131 61 -18 47 4 100 50 123 11 6 50 10 86 8 51 -1 74 -8
105 -28 l39 -25 11 23 c10 22 8 26 -32 49 -47 28 -145 40 -202 26z"/>
</g>
</svg>
